# xmcd CD database file
#
# Track frame offsets:
#	150
#	20864
#	40101
#	53545
#	73211
#	91251
#	111910
#	126487
#	142248
#	160099
#	178905
#	197206
#	213213
#	231482
#	250968
#	268363
#	281933
#	298720
#	316263
#	328240
#
# Disc length: 4652 seconds
#
# Revision: 5
# Processed by: cddbd v1.5.2PL0 Copyright (c) Steve Scherf et al.
# Submitted via: CDex 1.51
#
DISCID=4e122a14
DTITLE=Various Artist - Maxi Slows   [CD 1-3]
DYEAR=2011
DGENRE=Slows
TTITLE0=Garou, Daniel Lavoie and Patrick Fiori - Belle
TTITLE1=Félix Gray and Didier Barbelivien - À Toutes Les Filles
TTITLE2=C. Jérome - Et Tu Danses Avec Lui
TTITLE3=David and Jonathan - Est Ce Que Tu Viens Pour Les Vacances ?
TTITLE4=Christophe - Les Mots Bleus
TTITLE5=Claude Michel Schonberg - Le Premier Pas
TTITLE6=Lara Fabian - Laisse Moi Rêver
TTITLE7=Christian Delagrange - Les Yeux D'une Femme
TTITLE8=Caroline Legrand - J'aurais Voulu Te Dire
TTITLE9=Claude Barzotti - Aime-Moi
TTITLE10=Marie Laforêt - Parlez-Moi D'amour
TTITLE11=Françoise Hardy - Vip
TTITLE12=Anais and Didier Barbelivien - Les Mariés De Vendée
TTITLE13=Alain Delon - Comme Au Cinéma
TTITLE14=Sébastien El Chato - Couleur Menthe À L'eau
TTITLE15=Shelly Dalton  - Don't Make Me Over
TTITLE16=Santiana - Le Mal D'amour, Le Mal De Toi
TTITLE17=Patricia Carli - Tu Pars
TTITLE18=Dalida - Come Prima
TTITLE19=Guy Marchand - Destinée
EXTD=YEAR: 2011
EXTT0=
EXTT1=
EXTT2=
EXTT3=
EXTT4=
EXTT5=
EXTT6=
EXTT7=
EXTT8=
EXTT9=
EXTT10=
EXTT11=
EXTT12=
EXTT13=
EXTT14=
EXTT15=
EXTT16=
EXTT17=
EXTT18=
EXTT19=
PLAYORDER=
